# xmcd CD database file
#
# Track frame offsets:
#	150
#	15705
#	28962
#	43037
#	58780
#	69742
#	86460
#	102142
#
# Disc length: 1559 seconds
#
# Revision: 0
# Processed by: cddbd v1.5.1PL2 Copyright (c) Steve Scherf et al.
# Submitted via: CDex 1.51
#
DISCID=67061508
DTITLE=Max Bennett - Max Bennett Quintet
DYEAR=1955
DGENRE=Jazz
TTITLE0=Rubberneck
TTITLE1=Just Max
TTITLE2=They say
TTITLE3=Jeepers Creepers
TTITLE4=T. K.
TTITLE5=I'll Never Smile Again
TTITLE6=Do You Know Why
TTITLE7=Sweet Georgia Brown
EXTD=YEAR: 1955
EXTT0=
EXTT1=
EXTT2=
EXTT3=
EXTT4=
EXTT5=
EXTT6=
EXTT7=
PLAYORDER=
